<?xml version="1.0" encoding="UTF-8"?><svg id="_8_Bit" xmlns="http://www.w3.org/2000/svg" width="500" height="500" viewBox="0 0 500 500"><defs><style>.cls-1{fill:#ffe420;}.cls-1,.cls-2,.cls-3{stroke-width:0px;}.cls-2{fill:#00c2ff;}.cls-3{fill:#0059ac;}</style></defs><g id="_8_bit"><path class="cls-3" d="m428.14,358.25v-63.43c0-4.42-3.58-8-8-8h-63.43v142.86h63.43c4.42,0,8,3.58,8,8v55.43c0,4.42,3.58,8,8,8h55.43c4.42,0,8-3.58,8-8v-126.86c0-4.42-3.58-8-8-8h-63.43Z"/><path class="cls-3" d="m71,358.25H7.57c-4.42,0-8,3.58-8,8v126.86c0,4.42,3.58,8,8,8h55.43c4.42,0,8-3.58,8-8v-55.43c0-4.42,3.58-8,8-8h63.43v-142.86h-63.43c-4.42,0-8,3.58-8,8v63.43Z"/><path class="cls-2" d="m285.28,215.39v-63.43c0-4.42-3.58-8-8-8h-55.43c-4.42,0-8,3.58-8,8v63.43h-63.43c-4.42,0-8,3.58-8,8v269.71c0,4.42,3.58,8,8,8h55.43c4.42,0,8-3.58,8-8v-55.43c0-4.42,3.58-8,8-8h55.43c4.42,0,8,3.58,8,8v55.43c0,4.42,3.58,8,8,8h55.43c4.42,0,8-3.58,8-8V223.39c0-4.42-3.58-8-8-8h-63.43Z"/><rect class="cls-1" x="213.85" y="286.82" width="71.43" height="71.43" rx="8" ry="8"/><rect class="cls-1" x="71" y="72.53" width="71.43" height="71.43" rx="8" ry="8"/><rect class="cls-1" x="356.71" y="72.53" width="71.43" height="71.43" rx="8" ry="8"/><rect class="cls-1" x="213.85" y="1.1" width="71.43" height="71.43" rx="8" ry="8"/></g></svg>