<?xml version="1.0" encoding="UTF-8"?><svg id="Adventure" xmlns="http://www.w3.org/2000/svg" width="500" height="500" xmlns:xlink="http://www.w3.org/1999/xlink" viewBox="0 0 500 500"><defs><style>.cls-1{clip-path:url(#clippath);}.cls-2,.cls-3{fill:none;}.cls-2,.cls-4,.cls-5,.cls-6,.cls-7{stroke-width:0px;}.cls-3{stroke:#fdad00;stroke-miterlimit:10;stroke-width:15px;}.cls-4{fill:#131b29;}.cls-5{fill:#fff;}.cls-6{fill:#fdad00;}.cls-7{fill:#eb141f;}</style><clipPath id="clippath"><path class="cls-2" d="m319.13,192.94c3.9-7.86-4.42-16.18-12.28-12.28l-109.66,54.43c-3.16,1.57-5.73,4.13-7.3,7.3l-54.43,109.66c-3.9,7.86,4.42,16.18,12.28,12.28l109.66-54.43c3.16-1.57,5.73-4.13,7.3-7.3l54.43-109.66Z"/></clipPath></defs><circle class="cls-6" cx="227" cy="273" r="227"/><path class="cls-5" d="m367.58,273c0-13.72,10.75-24.93,24.29-25.67-11.06-71.61-67.66-128.19-139.28-139.21-1.26,13.03-12.23,23.21-25.59,23.21s-24.33-10.18-25.59-23.21c-71.65,11.03-128.27,67.64-139.29,139.29,13.03,1.26,23.21,12.23,23.21,25.59s-10.18,24.33-23.21,25.59c11.03,71.65,67.64,128.27,139.29,139.29,1.26-13.03,12.23-23.21,25.59-23.21s24.33,10.18,25.59,23.21c71.62-11.02,128.22-67.6,139.28-139.21-13.54-.74-24.29-11.95-24.29-25.67Z"/><g class="cls-1"><path class="cls-7" d="m307.13,180.53l-114.8,56.98,69.96,69.96,56.98-114.8c3.86-7.77-4.37-16-12.14-12.14Z"/><path class="cls-4" d="m135.34,352.32l56.98-114.8,69.96,69.96-114.8,56.98c-7.77,3.86-16-4.37-12.14-12.14Z"/></g><path class="cls-6" d="m397.83,63.52h.74c15.18,0,27.5,12.32,27.5,27.5v29.36c0,15.59-12.66,28.24-28.24,28.24h0c-15.18,0-27.5-12.32-27.5-27.5v-30.11c0-15.18,12.32-27.5,27.5-27.5Z" transform="translate(604.77 462.65) rotate(-135)"/><circle class="cls-3" cx="437" cy="63" r="55.5"/></svg>