<?xml version="1.0" encoding="UTF-8"?><svg id="Applied_math" xmlns="http://www.w3.org/2000/svg" width="500" height="500" viewBox="0 0 500 500"><defs><style>.cls-1{fill:#067741;}.cls-1,.cls-2{stroke-width:0px;}.cls-2{fill:#ffe420;}</style></defs><path class="cls-1" d="m42,370.12h72c23.2,0,42,21.02,42,46.94v36c0,25.92-18.8,46.94-42,46.94H42c-23.2,0-42-21.02-42-46.94v-36c0-25.92,18.8-46.94,42-46.94Z"/><path class="cls-1" d="m214,298.92h72c23.2,0,42,19.21,42,42.91v115.25c0,23.7-18.8,42.91-42,42.91h-72c-23.2,0-42-19.21-42-42.91v-115.25c0-23.7,18.8-42.91,42-42.91Z"/><path class="cls-1" d="m386,189.69h72c23.2,0,42,17.85,42,39.87v230.57c0,22.02-18.8,39.87-42,39.87h-72c-23.2,0-42-17.85-42-39.87v-230.57c0-22.02,18.8-39.87,42-39.87Z"/><path class="cls-2" d="m438.88,112.37c-5.52,0-10-4.48-10-10V20h-82.37c-5.52,0-10-4.48-10-10s4.48-10,10-10h92.37c5.52,0,10,4.48,10,10v92.37c0,5.52-4.48,10-10,10Z"/><path class="cls-2" d="m250.08,208.8c-2.56,0-5.12-.98-7.07-2.93-3.91-3.91-3.91-10.24,0-14.14L431.8,2.93c3.91-3.9,10.24-3.9,14.14,0,3.91,3.91,3.91,10.24,0,14.14l-188.8,188.8c-1.95,1.95-4.51,2.93-7.07,2.93Z"/><path class="cls-2" d="m61.21,309.37c-2.56,0-5.12-.98-7.07-2.93-3.91-3.91-3.91-10.24,0-14.14l144.72-144.72c3.91-3.9,10.24-3.9,14.14,0l44.15,44.15c3.91,3.91,3.91,10.24,0,14.14-3.91,3.9-10.24,3.9-14.14,0l-37.08-37.08-137.65,137.65c-1.95,1.95-4.51,2.93-7.07,2.93Z"/></svg>