<?xml version="1.0" encoding="UTF-8"?><svg id="Block_removal" xmlns="http://www.w3.org/2000/svg" width="500" height="500" viewBox="0 0 500 500"><defs><style>.cls-1{fill:#7242bc;}.cls-1,.cls-2,.cls-3,.cls-4{stroke-width:0px;}.cls-2{fill:#41bf2e;}.cls-3{fill:#ffe420;}.cls-4{fill:#0059ac;}</style></defs><rect class="cls-1" x="0" y="0" width="113" height="113" rx="16" ry="16"/><rect class="cls-3" x="129" y="0" width="113" height="113" rx="16" ry="16"/><rect class="cls-4" x="258" y="0" width="113" height="113" rx="16" ry="16"/><rect class="cls-2" x="387" y="0" width="113" height="113" rx="16" ry="16"/><rect class="cls-4" x="0" y="129" width="113" height="113" rx="16" ry="16"/><rect class="cls-3" x="129" y="129" width="113" height="113" rx="16" ry="16"/><rect class="cls-4" x="387" y="129" width="113" height="113" rx="16" ry="16"/><rect class="cls-4" x="0" y="258" width="113" height="113" rx="16" ry="16"/><rect class="cls-1" x="387" y="258" width="113" height="113" rx="16" ry="16"/><rect class="cls-2" x="0" y="387" width="113" height="113" rx="16" ry="16"/><rect class="cls-2" x="129" y="387" width="113" height="113" rx="16" ry="16"/><rect class="cls-3" x="258" y="387" width="113" height="113" rx="16" ry="16"/><rect class="cls-1" x="387" y="387" width="113" height="113" rx="16" ry="16"/></svg>