<?xml version="1.0" encoding="UTF-8"?><svg id="Board_games" xmlns="http://www.w3.org/2000/svg" width="500" height="500" viewBox="0 0 500 500"><defs><style>.cls-1{fill:#131b29;}.cls-1,.cls-2,.cls-3,.cls-4{stroke-width:0px;}.cls-2{fill:#ffe420;}.cls-3{fill:#fff;}.cls-4{fill:#fdad00;}</style></defs><g id="Board_games-2"><path class="cls-2" d="m458,0H42C18.8,0,0,18.8,0,42v416c0,23.2,18.8,42,42,42h416c23.2,0,42-18.8,42-42V42c0-23.2-18.8-42-42-42Z"/><path class="cls-4" d="m42,0h124.67v166.67H0V42C0,18.8,18.8,0,42,0Z"/><rect class="cls-2" x="166.67" width="166.67" height="166.67"/><path class="cls-4" d="m333.33,0h124.67c23.2,0,42,18.8,42,42v124.67h-166.67V0Z"/><rect class="cls-2" y="166.67" width="166.67" height="166.67"/><rect class="cls-4" x="166.67" y="166.67" width="166.67" height="166.67"/><rect class="cls-2" x="333.33" y="166.67" width="166.67" height="166.67"/><path class="cls-4" d="m0,333.33h166.67v166.67H42c-23.2,0-42-18.8-42-42v-124.67Z"/><rect class="cls-2" x="166.67" y="333.33" width="166.67" height="166.67"/><path class="cls-4" d="m333.33,333.33h166.67v124.67c0,23.2-18.8,42-42,42h-124.67v-166.67Z"/><g id="checkers_pieces"><circle class="cls-1" cx="250.5" cy="250.5" r="45.5"/><circle class="cls-1" cx="416.5" cy="83.5" r="45.5"/><circle class="cls-3" cx="83.5" cy="419.5" r="45.5"/><circle class="cls-3" cx="416.5" cy="419.5" r="45.5"/><circle class="cls-1" cx="83.5" cy="83.5" r="45.5"/></g></g></svg>