<?xml version="1.0" encoding="UTF-8"?><svg id="Building_blocks" xmlns="http://www.w3.org/2000/svg" width="500" height="500" viewBox="0 0 500 500"><defs><style>.cls-1{fill:#ffe420;}.cls-1,.cls-2,.cls-3,.cls-4{stroke-width:0px;}.cls-2{fill:#eb141f;}.cls-3{fill:#00c2ff;}.cls-4{fill:#0059ac;}</style></defs><path class="cls-4" d="m500,266.01v218c0,8.84-7.16,16-16,16h-93c-8.84,0-16-7.16-16-16v-9.21c0-34.52-13.99-65.77-36.61-88.39-22.62-22.62-53.86-36.6-88.37-36.61-69.26,0-125.02,57.05-125.02,126.31v7.9c0,8.84-7.16,16-16,16H16c-8.84,0-16-7.16-16-16v-218c0-8.84,7.16-16,16-16h468c8.84,0,16,7.16,16,16Z"/><rect class="cls-1" x="82.85" y="125.89" width="125" height="124.12" rx="16" ry="16"/><rect class="cls-3" x="291.85" y="125.89" width="125" height="124.12" rx="16" ry="16"/><path class="cls-2" d="m240.93,2.72L101.09,96.61c-13.12,8.81-6.89,29.28,8.92,29.28h279.69c15.8,0,22.04-20.47,8.92-29.28L258.77,2.72c-5.39-3.62-12.44-3.62-17.84,0Z"/></svg>