<?xml version="1.0" encoding="UTF-8"?><svg id="Business-2" xmlns="http://www.w3.org/2000/svg" width="500" height="500" viewBox="0 0 500 500"><defs><style>.cls-1{fill:#067741;}.cls-1,.cls-2,.cls-3,.cls-4{stroke-width:0px;}.cls-2{fill:#41bf2e;}.cls-3{fill:#ffe420;}.cls-4{fill:#fff;}</style></defs><g id="business"><rect class="cls-1" x="287.19" y="81.35" width="128.7" height="46" rx="16" ry="16" transform="translate(455.89 -247.19) rotate(90)"/><path class="cls-1" d="m0,400h500v84c0,8.83-7.17,16-16,16H16C7.17,500,0,492.83,0,484v-84H0Z"/><path class="cls-2" d="m439.09,132.53H60.91c-7.76,0-14.4,5.56-15.75,13.2L0,400h500l-45.16-254.26c-1.36-7.64-8-13.2-15.75-13.2Z"/><rect class="cls-4" x="70.35" y="79.24" width="135.69" height="207.05" rx="16" ry="16"/><rect class="cls-2" x="251.54" y="0" width="200" height="80" rx="16" ry="16"/><rect class="cls-3" x="271.54" y="20" width="160" height="40" rx="8" ry="8"/><rect class="cls-1" x="245.04" y="248" width="44" height="40" rx="20" ry="20"/><rect class="cls-1" x="315.04" y="248" width="44" height="40" rx="20" ry="20"/><rect class="cls-1" x="385.04" y="248" width="44" height="40" rx="20" ry="20"/><rect class="cls-1" x="245.04" y="314" width="44" height="40" rx="20" ry="20"/><rect class="cls-1" x="315.04" y="314" width="44" height="40" rx="20" ry="20"/><rect class="cls-1" x="385.04" y="314" width="44" height="40" rx="20" ry="20"/><rect class="cls-3" x="244.04" y="176" width="185" height="46" rx="16" ry="16"/></g></svg>