<?xml version="1.0" encoding="UTF-8"?><svg id="Card" xmlns="http://www.w3.org/2000/svg" width="500" height="500" viewBox="0 0 500 500"><defs><style>.cls-1{fill:#ffe420;}.cls-1,.cls-2,.cls-3,.cls-4{stroke-width:0px;}.cls-2{fill:#fdad00;}.cls-3{fill:#00c2ff;}.cls-4{fill:#0059ac;}</style></defs><rect class="cls-2" x="178.94" y="42.81" width="291.38" height="441.49" rx="37.08" ry="37.08" transform="translate(49.53 -51.35) rotate(9.79)"/><path class="cls-1" d="m320.26,350.45c-5.78,4.08-13.78,2.7-17.86-3.08l-47.67-67.55c-51.18-72.52,26.84-127.58,78.02-55.06,68.6-48.41,123.66,29.61,55.06,78.02l-67.55,47.67Z"/><path class="cls-1" d="m439.35,144.57c-1.46,1.03-3.47.68-4.5-.78l-12.01-17.02c-12.9-18.28,6.76-32.15,19.66-13.88,17.29-12.2,31.16,7.46,13.88,19.66l-17.02,12.01Z"/><path class="cls-1" d="m204.48,440.55c-1.46,1.03-3.47.68-4.5-.78l-12.01-17.02c-12.9-18.28,6.76-32.15,19.66-13.88,17.29-12.2,31.16,7.46,13.88,19.66l-17.02,12.01Z"/><rect class="cls-4" y=".09" width="330" height="500" rx="42" ry="42"/><rect class="cls-3" x="77.78" y="163.34" width="174.35" height="174.35" rx="16" ry="16" transform="translate(225.45 -43.27) rotate(45)"/><rect class="cls-3" x="248.93" y="43.92" width="46.43" height="46.43" rx="4.26" ry="4.26" transform="translate(127.18 -172.77) rotate(45)"/><rect class="cls-3" x="34.03" y="412.44" width="46.43" height="46.43" rx="4.26" ry="4.26" transform="translate(324.82 87.12) rotate(45)"/></svg>