<?xml version="1.0" encoding="UTF-8"?><svg id="Classic" xmlns="http://www.w3.org/2000/svg" width="500" height="500" viewBox="0 0 500 500"><defs><style>.cls-1{fill:#fff;}.cls-1,.cls-2,.cls-3{stroke-width:0px;}.cls-2{fill:#eb141f;}.cls-3{fill:#0059ac;}</style></defs><rect class="cls-1" x="209.83" y="88.45" width="257.8" height="382.26" rx="16" ry="16" transform="translate(61.89 -61.39) rotate(11.39)"/><path class="cls-2" d="m330.16,339.01c-4.36,2.9-10.25,1.71-13.15-2.65l-33.89-50.98c-36.38-54.74,22.51-93.88,58.89-39.14,51.78-34.41,90.91,24.48,39.14,58.89l-50.99,33.89Z"/><path class="cls-2" d="m432.83,183.4c-1.67,1.11-3.91.65-5.02-1.01l-12.93-19.46c-13.89-20.89,8.59-35.83,22.48-14.94,19.76-13.14,34.7,9.34,14.94,22.48l-19.46,12.93Z"/><path class="cls-3" d="m337.07,383.05c-30.39-38.31-87.17-48.47-94.67-101.07,0,0-5.61-39.37-8.2-57.53h25.33c14.4,0,26.08-11.68,26.08-26.08v-.63c0-14.4-11.68-26.08-26.08-26.08h-7.24c19.34-18.11,31.43-43.86,31.43-72.44C283.72,44.42,239.29,0,184.48,0s-99.24,44.42-99.24,99.22c0,28.58,12.09,54.33,31.43,72.44h-9.2c-14.4,0-26.08,11.68-26.08,26.08v.63c0,14.4,11.68,26.08,26.08,26.08h26.31c-2.35,17.98-7.41,56.68-7.42,56.8-6.9,52.76-63.49,62.88-94.37,100.77C11.82,406.76.06,441.24.06,471.91H.06c0,15.51,12.58,28.09,28.1,28.09h311.81c15.52,0,28.1-12.58,28.1-28.09h0c0-30.34-11.4-64.15-30.99-88.85Z"/></svg>