<?xml version="1.0" encoding="UTF-8"?><svg id="Construction" xmlns="http://www.w3.org/2000/svg" width="500" height="500" viewBox="0 0 500 500"><defs><style>.cls-1{fill:#ffe420;}.cls-1,.cls-2{stroke-width:0px;}.cls-2{fill:#fdad00;}</style></defs><path class="cls-1" d="m250,32.7h0c126.94,0,230,103.06,230,230v109.62H20v-109.62c0-126.94,103.06-230,230-230Z"/><path class="cls-1" d="m20,406.37h460l-36.64,27.66c-56.9,42.95-124.53,65.97-193.8,65.97h0c-70.69,0-139.62-23.96-197.18-68.56l-32.37-25.08Z"/><path class="cls-2" d="m286.18,263.89h-72.35c-8.24,0-15.14-6.26-15.93-14.47l-22.33-231.8c-.96-9.43,6.44-17.63,15.92-17.63h117.04c9.48,0,16.88,8.2,15.92,17.63l-22.33,231.8c-.79,8.2-7.68,14.47-15.93,14.47Z"/><rect class="cls-2" y="319.78" width="500" height="86.59" rx="16" ry="16"/><path class="cls-2" d="m369.51,197.99c-.52,0-1.05-.04-1.58-.12-5.45-.86-9.18-5.99-8.31-11.44l17.44-110.1c.86-5.46,5.98-9.18,11.44-8.31,5.45.86,9.18,5.99,8.31,11.44l-17.44,110.1c-.78,4.92-5.03,8.44-9.86,8.44Z"/><path class="cls-2" d="m130.49,198c-4.83,0-9.08-3.51-9.86-8.44l-17.44-110.1c-.86-5.46,2.86-10.58,8.31-11.44,5.46-.87,10.58,2.86,11.44,8.31l17.44,110.1c.86,5.46-2.86,10.58-8.31,11.44-.53.08-1.06.12-1.58.12Z"/></svg>