<?xml version="1.0" encoding="UTF-8"?><svg id="Daily" xmlns="http://www.w3.org/2000/svg" width="500" height="500" viewBox="0 0 500 500"><defs><style>.cls-1{fill:#131b29;}.cls-1,.cls-2,.cls-3,.cls-4,.cls-5{stroke-width:0px;}.cls-2{fill:#fff;}.cls-3{fill:#eb141f;}.cls-4{fill:#00c2ff;}.cls-5{fill:#0059ac;}</style></defs><path class="cls-2" d="m-.32,136.91h500v322.72c0,22.23-18.05,40.28-40.28,40.28H39.96c-22.23,0-40.28-18.05-40.28-40.28V136.91H-.32Z"/><path class="cls-4" d="m41.68,39.91h416c23.18,0,42,18.82,42,42v80H-.32v-80c0-23.18,18.82-42,42-42Z"/><path class="cls-5" d="m77,89.91c-11.05,0-20-8.95-20-20V19.91C57,8.87,65.95-.09,77-.09s20,8.95,20,20v50c0,11.05-8.95,20-20,20Z"/><path class="cls-5" d="m422,89.91c-11.05,0-20-8.95-20-20V19.91c0-11.05,8.95-20,20-20s20,8.95,20,20v50c0,11.05-8.95,20-20,20Z"/><rect class="cls-4" x="123.8" y="109.91" width="209" height="90"/><path class="cls-1" d="m418.8,444.99c-7.04,0-14.08-2.68-19.45-8.05l-101.72-101.72c-10.74-10.74-10.74-28.15,0-38.89,10.74-10.74,28.15-10.74,38.89,0l101.72,101.72c10.74,10.74,10.74,28.15,0,38.89-5.37,5.37-12.41,8.05-19.45,8.05Z"/><path class="cls-3" d="m227.48,369.76c-77.84,0-141.17-63.33-141.17-141.17s63.33-141.17,141.17-141.17,141.17,63.33,141.17,141.17-63.33,141.17-141.17,141.17Zm0-237.34c-53.03,0-96.17,43.14-96.17,96.17s43.14,96.17,96.17,96.17,96.17-43.14,96.17-96.17-43.14-96.17-96.17-96.17Z"/></svg>