<?xml version="1.0" encoding="UTF-8"?><svg id="Drawing" xmlns="http://www.w3.org/2000/svg" width="500" height="500" viewBox="0 0 500 500"><defs><style>.cls-1{fill:none;stroke:#0059ac;stroke-linecap:round;stroke-linejoin:round;stroke-width:30px;}.cls-2{fill:#ffe420;}.cls-2,.cls-3,.cls-4,.cls-5{stroke-width:0px;}.cls-3{fill:#fdad00;}.cls-4{fill:#eb141f;}.cls-5{fill:#0059ac;}</style></defs><path class="cls-4" d="m318.86,23.3h111.38c40.28,0,72.99,32.7,72.99,72.99v81.42H245.88v-81.42c0-40.28,32.7-72.99,72.99-72.99Z" transform="translate(77.57 -148.88) rotate(25)"/><path class="cls-3" d="m236.14,92.86l-96.8,207.6c-3.21,6.88-4,14.64-2.24,22.03l36.88,154.67c4.49,18.82,23.67,27.76,40.97,19.11l142.19-71.17c6.79-3.4,12.23-8.99,15.44-15.87l96.8-207.6-233.24-108.76Z"/><path class="cls-2" d="m214.95,496.25l142.19-71.17c.85-.42,1.68-.88,2.48-1.38l-223.06-104.01c.14.93.32,1.86.54,2.78l36.88,154.67c4.49,18.82,23.67,27.76,40.97,19.1Z"/><path class="cls-5" d="m253.66,476.87l-38.71,19.38c-17.3,8.66-36.49-.29-40.97-19.1l-10.04-42.11,89.72,41.83Z"/><path class="cls-1" d="m122.17,473.57c-10.18-5.82-24.38-15.08-39-29-5.42-5.17-74.46-72.76-64-141,12.43-81.1,127.62-100.94,125-177-.56-16.26-6.22-26.87-8-30C109.03,48.9,23.76,56.68,15.17,57.57"/></svg>