<?xml version="1.0" encoding="UTF-8"?><svg id="Endless_Runner" xmlns="http://www.w3.org/2000/svg" width="500" height="500" viewBox="0 0 500 500"><defs><style>.cls-1{fill:#ffe420;}.cls-1,.cls-2,.cls-3{stroke-width:0px;}.cls-2{fill:#00c2ff;}.cls-3{fill:#0059ac;}</style></defs><path class="cls-2" d="m191.81,492.57c-1.22,0-2.47-.15-3.71-.47-52.84-13.44-100.62-44.56-134.55-87.61C18.56,360.08.07,306.66.07,250,.07,183.28,26.05,120.55,73.23,73.37,120.41,26.18,183.14.2,249.87.2c34.13,0,67.21,6.76,98.34,20.1,7.61,3.26,11.14,12.08,7.88,19.7-3.26,7.61-12.08,11.14-19.7,7.88-27.37-11.73-56.47-17.68-86.52-17.68-58.71,0-113.91,22.86-155.42,64.38C52.93,136.09,30.07,191.29,30.07,250c0,49.86,16.27,96.86,47.05,135.92,29.86,37.9,71.91,65.29,118.38,77.11,8.03,2.04,12.88,10.21,10.84,18.24-1.73,6.79-7.83,11.31-14.53,11.31Z"/><path class="cls-2" d="m370.06,50.67L344.71,1.09c-.74-1.45-2.8-1.45-3.55-.02l-29.83,57.1c-.75,1.44.43,3.13,2.04,2.91l55.17-7.52c1.37-.19,2.14-1.66,1.51-2.89Z"/><path class="cls-3" d="m491.19,300.15l-.79-.61c-9.93-7.7-24.21-5.89-31.91,4.04l-23.45,30.24-48.21-37.39-10.3-7.5c4.64.66,9.37,1.02,14.2,1.02,55.36,0,100.23-44.87,100.23-100.23s-44.87-100.23-100.23-100.23-100.23,44.87-100.23,100.23c0,15.68,3.61,30.52,10.03,43.74l-47.77-37.04c-9.93-7.7-24.21-5.89-31.91,4.04l-.61.79s0,0,0,0l-37.39,48.21c-7.7,9.93-5.89,24.21,4.04,31.91l.79.61c9.93,7.7,24.21,5.89,31.91-4.04l23.45-30.24,34.07,26.42-104.3,187.91c-6.76,10.91-3.39,25.24,7.52,32h0c10.91,6.76,25.24,3.39,32-7.52l61.04-95.74,6.24-8.32,56.06,33.03-29.31,49.75c-6.38,10.82-2.77,24.76,8.05,31.14l.86.51c10.82,6.38,24.76,2.77,31.14-8.05l39.89-67.7c.2-.3.41-.58.59-.9l1.36-2.3c6.14-10.42,2.67-23.85-7.75-29.99l-37.05-21.83,18.69-29.99,63.2,49.01c9.93,7.7,24.21,5.89,31.91-4.04l.61-.79h0s37.39-48.21,37.39-48.21c7.7-9.93,5.89-24.21-4.04-31.91Z"/><path class="cls-1" d="m387.15,201.14c-6.69,0-12.1-5.42-12.1-12.1v-16.01c0-6.68,5.42-12.1,12.1-12.1s12.1,5.42,12.1,12.1v16.01c0,6.68-5.42,12.1-12.1,12.1Z"/><path class="cls-1" d="m451.01,201.14c-6.69,0-12.1-5.42-12.1-12.1v-16.01c0-6.68,5.42-12.1,12.1-12.1s12.1,5.42,12.1,12.1v16.01c0,6.68-5.42,12.1-12.1,12.1Z"/></svg>