<?xml version="1.0" encoding="UTF-8"?><svg id="Geography" xmlns="http://www.w3.org/2000/svg" width="500" height="500" viewBox="0 0 500 500"><defs><style>.cls-1{fill:#00c2ff;}.cls-1,.cls-2{stroke-width:0px;}.cls-2{fill:#008d5a;}</style></defs><g id="Geography-2"><circle class="cls-1" cx="250.14" cy="249.71" r="250"/><path class="cls-2" d="m500.14,249.71c0,58.9-20.4,113-54.4,155.7-12.1-16.6-13.6-70.2-11.1-85.5,1.5-9.1-4-17.8-9-23.5-3.6-4.1-5.1-9.7-4-15.1,1.4-7.3-.3-16.6-19.3-16.3-30.8.6-54.8.5-73-21.6-18.2-22.2,12.7-66.7,23.5-79.3,10.8-12.6,35.2-10.4,55.7-13.6,20.4-3.2,8.1,17.4,24.2,20.3,16.2,2.9,9.1-.7,23.5-6,6.7-2.4,19.1.2,30.3,3.7,8.9,25.5,13.6,52.8,13.6,81.2Zm-99.4-187.4c12.6,9.4,24.4,11.9,14.1,17.2-10.3,5.3-38.3,17.8-35.8,23.6,2.5,5.8,6.1,12.3-6.6,15.1-12.8,2.8-28.1,19.9-16.6,21.2s32-.5,36-13.3,17-20.6,23.1-12.8c6.1,7.8,14.5,16.9,26.2,18.9,8,1.4,18-7.7,23.8-10.6-16.3-27.2-37.5-51-62.6-70.3-5.1,3.5-7,7-1.6,11Zm-177.9,365.9c8.1-8.4,2.9-34.3,30.3-49.7,4.4-2.5,13.2-11,30.8-22.6,17.6-11.6,14.2-68.4-24.2-65.3-16.4,1.4-20.3-17.6-25.3-29-6.6-15.2-44.9-23.9-54.8-19.1-9.9,4.8-26.3,6.6-35.5,8.2-9.2,1.7-15-17.2-12.6-29,3.2-15.9-13.3-17.6-17.7-14.3-2.7,2-5.6,5.4-12.1,7.7-7.7,2.8-18.9-1.1-21.9-7.7-4.2-9.3,8.5-23.8,20.8-29.6,1.3-.6,18.6-8.6,27.4-1.1,6.4,5.4,3.9,15.2,12.1,19.8.6.3,5,2.4,7.7,1.1,7.7-3.8-1.8-14.7,2.2-24.3,3.5-8.5,9.4-5.6,19.7-16.2,8.2-8.4,6.2-10.2,11-20.8,10-22.2,32.7-33.9,39.5-35.1,12.3-2.2,29.8-.5,32-8.6,1.3-5-7-13.4-22.1-17.7-8.6-2.4-21.3-2-25.2,4.4-1,1.4-1.9,3-2.6,4.6-.5,1.3.5,3-.5,4-12.7,11.7-30.9-6.7-32.8-11.4-1.7-4.1-11.8-14.5-14-16.3-8-6.6-16.5-11.8-26.7-14.1-6.1-1.4-12.5-2.2-18.8-2.9-43,29.1-76.3,71.3-94.4,120.9,3.6,2.9,9.5,4.5,19.8,3.8,2.4-.2,6.3.3,8.8,2.2,3.5,2.7,4.3,6.3,6.6,14.3,1.4,4.8,3,9.5,4.4,14.3,1.7,5.8,5.9,20.6,15.3,27.4,12.6,9.2,28.4-6.9,39.5-2.2,0,0,2.3.6,3.3,1.1,3.9,1.8,7.7,7.7,5.4,20-2.3,12.3,7.8,10.8,19.6,17.4,11.8,6.6,1.3,19.7-4.7,36s17,40.7,27.8,43.2,16.6,14,15,26.4c-1.6,12.4-.6,55.6,10.9,81.6s34.5,34.3,43.3,34.2c8.8-.1-8.8-19.6-14.8-32.2-6-12.6-.5-15,7.5-23.4Z"/></g></svg>