<?xml version="1.0" encoding="UTF-8"?><svg id="Hard_control" xmlns="http://www.w3.org/2000/svg" width="500" height="500" viewBox="0 0 500 500"><defs><style>.cls-1{fill:#ffe420;}.cls-1,.cls-2,.cls-3{stroke-width:0px;}.cls-2{fill:#fdad00;}.cls-3{fill:#eb141f;}</style></defs><path class="cls-2" d="m237.54,378.78c-2.09,0-4.21-.26-6.32-.81-13.36-3.48-21.37-17.14-17.89-30.5l57.43-220.31c3.48-13.36,17.14-21.37,30.5-17.89,13.36,3.48,21.37,17.14,17.89,30.5l-57.43,220.31c-2.93,11.25-13.07,18.7-24.17,18.7Z"/><circle class="cls-1" cx="304.27" cy="97.72" r="97.7"/><rect class="cls-3" x="25.3" y="333.69" width="449.4" height="166.31" rx="42" ry="42"/><path class="cls-3" d="m488.27,257.9l-25.52-22.77c-.34-.31-.35-.84-.02-1.15l37.08-35.05c.47-.44,0-1.21-.61-1l-73.78,25.89c-.43.15-.54.71-.2,1.01l23.52,20.98c.34.31.35.84.01,1.16l-37.45,34.94c-.47.43-.02,1.2.59,1.01l76.16-24c.44-.14.56-.71.22-1.02Z"/><path class="cls-3" d="m.7,156.82l51.68-13.17c.69-.18,1.09-.91.85-1.58l-26.14-75.16c-.33-.95.87-1.68,1.56-.95l83.51,88.85c.49.52.24,1.37-.45,1.54l-47.63,12.14c-.7.18-1.09.92-.85,1.59l26.73,75.27c.33.94-.83,1.67-1.54.97L.27,158.38c-.51-.51-.27-1.39.43-1.56Z"/><circle class="cls-1" cx="369.89" cy="416.85" r="32.09"/></svg>