<?xml version="1.0" encoding="UTF-8"?><svg id="Idle" xmlns="http://www.w3.org/2000/svg" width="500" height="500" viewBox="0 0 500 500"><defs><style>.cls-1{fill:#ffe420;}.cls-1,.cls-2,.cls-3{stroke-width:0px;}.cls-2{fill:#00c2ff;}.cls-3{fill:#0059ac;}</style></defs><path class="cls-1" d="m53.18,15.03l9.77,19.8c.92,1.87,2.7,3.16,4.76,3.46l21.85,3.18c5.19.75,7.26,7.13,3.5,10.78l-15.81,15.41c-1.49,1.45-2.17,3.55-1.82,5.6l3.73,21.76c.89,5.17-4.54,9.1-9.17,6.67l-19.55-10.28c-1.84-.97-4.04-.97-5.88,0l-19.55,10.28c-4.64,2.44-10.06-1.5-9.17-6.67l3.73-21.76c.35-2.05-.33-4.14-1.82-5.6L1.95,52.25c-3.75-3.66-1.68-10.03,3.5-10.78l21.85-3.18c2.06-.3,3.84-1.59,4.76-3.46l9.77-19.8c2.32-4.7,9.02-4.7,11.34,0Z"/><path class="cls-1" d="m95.2,255.65v-8.58c0-2-1.62-3.62-3.62-3.62h-5.53c-2.39,0-4.53-1.5-5.32-3.75-.41-1.17-.89-2.31-1.41-3.42-1.03-2.16-.59-4.73,1.11-6.42l3.91-3.91c1.41-1.41,1.41-3.71,0-5.12l-6.07-6.07c-1.41-1.41-3.71-1.41-5.12,0l-3.91,3.91c-1.69,1.69-4.26,2.14-6.42,1.11-1.11-.53-2.25-1-3.42-1.41-2.25-.79-3.75-2.93-3.75-5.32v-5.53c0-2-1.62-3.62-3.62-3.62h-8.58c-2,0-3.62,1.62-3.62,3.62v5.53c0,2.39-1.5,4.53-3.75,5.32-1.17.41-2.31.89-3.42,1.41-2.16,1.03-4.73.59-6.42-1.11l-3.91-3.91c-1.41-1.41-3.71-1.41-5.12,0l-6.07,6.07c-1.41,1.41-1.41,3.71,0,5.12l3.91,3.91c1.69,1.69,2.14,4.26,1.11,6.42-.53,1.11-1,2.25-1.41,3.42-.79,2.25-2.93,3.75-5.32,3.75H3.87c-2,0-3.62,1.62-3.62,3.62v8.58c0,2,1.62,3.62,3.62,3.62h5.53c2.39,0,4.53,1.5,5.32,3.75.41,1.17.89,2.31,1.41,3.42,1.03,2.16.59,4.73-1.11,6.42l-3.91,3.91c-1.41,1.41-1.41,3.71,0,5.12l6.07,6.07c1.41,1.41,3.71,1.41,5.12,0l3.91-3.91c1.69-1.69,4.26-2.14,6.42-1.11,1.11.53,2.25,1,3.42,1.41,2.25.79,3.75,2.93,3.75,5.32v5.53c0,2,1.62,3.62,3.62,3.62h8.58c2,0,3.62-1.62,3.62-3.62v-5.53c0-2.39,1.5-4.53,3.75-5.32,1.17-.41,2.31-.89,3.42-1.41,2.16-1.03,4.73-.59,6.42,1.11l3.91,3.91c1.41,1.41,3.71,1.41,5.12,0l6.07-6.07c1.41-1.41,1.41-3.71,0-5.12l-3.91-3.91c-1.69-1.69-2.14-4.26-1.11-6.42.53-1.11,1-2.25,1.41-3.42.79-2.25,2.93-3.75,5.32-3.75h5.53c2,0,3.62-1.62,3.62-3.62Zm-46.34,13.17c-10.56.67-19.27-8.04-18.6-18.6.55-8.71,7.62-15.78,16.33-16.33,10.56-.67,19.27,8.04,18.6,18.6-.55,8.71-7.62,15.78-16.33,16.33Z"/><circle class="cls-1" cx="47.24" cy="434.8" r="45.76"/><path class="cls-2" d="m309.36,182.74v135h-117.31c-23.2,0-42-18.8-42-42v-51c0-23.2,18.8-42,42-42h117.31Z"/><path class="cls-3" d="m500.05,224.74v51c0,23.2-18.8,42-42,42h-148.69v-135h148.69c23.2,0,42,18.8,42,42Z"/><rect class="cls-2" x="150.05" y="365.24" width="350" height="135" rx="42" ry="42"/><path class="cls-3" d="m500.05,42.24v51c0,23.2-18.8,42-42,42h-47.66V.24h47.66c23.2,0,42,18.8,42,42Z"/><path class="cls-2" d="m410.39.24v135h-218.34c-23.2,0-42-18.8-42-42v-51C150.05,19.04,168.85.24,192.05.24h218.34Z"/></svg>