<?xml version="1.0" encoding="UTF-8"?><svg id="Logic" xmlns="http://www.w3.org/2000/svg" width="500" height="500" viewBox="0 0 500 500"><defs><style>.cls-1{fill:#ffe420;}.cls-1,.cls-2,.cls-3,.cls-4{stroke-width:0px;}.cls-2{fill:#fdad00;}.cls-3{fill:#00c2ff;}.cls-4{fill:#0059ac;}</style></defs><rect class="cls-4" x="14.2" y="14.2" width="485.8" height="485.8" rx="242.9" ry="242.9"/><path class="cls-1" d="m498.22,286.58c-5.93,49.07-26.5,93.63-57.21,129.18-44.74-20.45-77-63.47-82.24-114.49-.81-7.86,5.38-14.69,13.28-14.69h126.17Z"/><path class="cls-1" d="m439.45,247.5c-10.37,0-18.77-8.4-18.77-18.77v-35.95c0-10.37,8.4-18.77,18.77-18.77s18.77,8.4,18.77,18.77v35.95c0,10.37-8.4,18.77-18.77,18.77Z"/><path class="cls-1" d="m167.49,91.32v-15.14c0-3.53-2.86-6.39-6.39-6.39h-9.76c-4.21,0-7.98-2.64-9.38-6.61-.73-2.06-1.56-4.07-2.5-6.03-1.82-3.81-1.03-8.35,1.95-11.33l6.9-6.9c2.49-2.49,2.49-6.54,0-9.03l-10.7-10.7c-2.49-2.49-6.54-2.49-9.03,0l-6.9,6.9c-2.98,2.98-7.52,3.77-11.33,1.95-1.95-.93-3.97-1.77-6.03-2.5-3.97-1.4-6.61-5.17-6.61-9.38V6.39c0-3.53-2.86-6.39-6.39-6.39h-15.14c-3.53,0-6.39,2.86-6.39,6.39v9.76c0,4.21-2.64,7.98-6.61,9.38-2.06.73-4.07,1.56-6.03,2.5-3.81,1.82-8.35,1.03-11.33-1.95l-6.9-6.9c-2.49-2.49-6.54-2.49-9.03,0l-10.7,10.7c-2.49,2.49-2.49,6.54,0,9.03l6.9,6.9c2.98,2.98,3.77,7.52,1.95,11.33-.93,1.95-1.77,3.97-2.5,6.03-1.4,3.97-5.17,6.61-9.38,6.61H6.39c-3.53,0-6.39,2.86-6.39,6.39v15.14c0,3.53,2.86,6.39,6.39,6.39h9.76c4.21,0,7.98,2.64,9.38,6.61.73,2.06,1.56,4.07,2.5,6.03,1.82,3.81,1.03,8.35-1.95,11.33l-6.9,6.9c-2.49,2.49-2.49,6.54,0,9.03l10.7,10.7c2.49,2.49,6.54,2.49,9.03,0l6.9-6.9c2.98-2.98,7.52-3.77,11.33-1.95,1.95.93,3.97,1.77,6.03,2.5,3.97,1.4,6.61,5.17,6.61,9.38v9.76c0,3.53,2.86,6.39,6.39,6.39h15.14c3.53,0,6.39-2.86,6.39-6.39v-9.76c0-4.21,2.64-7.98,6.61-9.38,2.06-.73,4.07-1.56,6.03-2.5,3.81-1.82,8.35-1.03,11.33,1.95l6.9,6.9c2.49,2.49,6.54,2.49,9.03,0l10.7-10.7c2.49-2.49,2.49-6.54,0-9.03l-6.9-6.9c-2.98-2.98-3.77-7.52-1.95-11.33.93-1.95,1.77-3.97,2.5-6.03,1.4-3.97,5.17-6.61,9.38-6.61h9.76c3.53,0,6.39-2.86,6.39-6.39Zm-81.74,23.24c-18.63,1.18-33.99-14.18-32.81-32.81.97-15.36,13.44-27.83,28.8-28.8,18.63-1.18,33.99,14.18,32.81,32.81-.97,15.36-13.44,27.83-28.8,28.8Z"/><path class="cls-3" d="m191.15,236.63v-10.85c0-2.53-2.05-4.58-4.58-4.58h-6.99c-3.02,0-5.72-1.89-6.73-4.74-.52-1.48-1.12-2.92-1.79-4.32-1.3-2.73-.74-5.98,1.4-8.12l4.95-4.95c1.79-1.79,1.79-4.69,0-6.48l-7.67-7.67c-1.79-1.79-4.69-1.79-6.48,0l-4.95,4.95c-2.14,2.14-5.39,2.7-8.12,1.4-1.4-.67-2.84-1.27-4.32-1.79-2.85-1-4.74-3.71-4.74-6.73v-6.99c0-2.53-2.05-4.58-4.58-4.58h-10.85c-2.53,0-4.58,2.05-4.58,4.58v6.99c0,3.02-1.89,5.72-4.74,6.73-1.48.52-2.92,1.12-4.32,1.79-2.73,1.3-5.98.74-8.12-1.4l-4.95-4.95c-1.79-1.79-4.69-1.79-6.48,0l-7.67,7.67c-1.79,1.79-1.79,4.69,0,6.48l4.95,4.95c2.14,2.14,2.7,5.39,1.4,8.12-.67,1.4-1.27,2.84-1.79,4.32-1,2.85-3.71,4.74-6.73,4.74h-6.99c-2.53,0-4.58,2.05-4.58,4.58v10.85c0,2.53,2.05,4.58,4.58,4.58h6.99c3.02,0,5.72,1.89,6.73,4.74.52,1.48,1.12,2.92,1.79,4.32,1.3,2.73.74,5.98-1.4,8.12l-4.95,4.95c-1.79,1.79-1.79,4.69,0,6.48l7.67,7.67c1.79,1.79,4.69,1.79,6.48,0l4.95-4.95c2.14-2.14,5.39-2.7,8.12-1.4,1.4.67,2.84,1.27,4.32,1.79,2.85,1,4.74,3.71,4.74,6.73v6.99c0,2.53,2.05,4.58,4.58,4.58h10.85c2.53,0,4.58-2.05,4.58-4.58v-6.99c0-3.02,1.89-5.72,4.74-6.73,1.48-.52,2.92-1.12,4.32-1.79,2.73-1.3,5.98-.74,8.12,1.4l4.95,4.95c1.79,1.79,4.69,1.79,6.48,0l7.67-7.67c1.79-1.79,1.79-4.69,0-6.48l-4.95-4.95c-2.14-2.14-2.7-5.39-1.4-8.12.67-1.4,1.27-2.84,1.79-4.32,1-2.85,3.71-4.74,6.73-4.74h6.99c2.53,0,4.58-2.05,4.58-4.58Zm-58.58,16.65c-13.35.84-24.36-10.16-23.52-23.52.7-11.01,9.63-19.95,20.64-20.64,13.35-.84,24.36,10.16,23.52,23.52-.7,11.01-9.63,19.95-20.64,20.64Z"/><path class="cls-2" d="m385.84,140.17l-.88-19.65c-.21-4.58-4.09-8.12-8.66-7.92l-12.67.57c-5.47.25-10.51-2.96-12.57-8.04-1.06-2.63-2.26-5.19-3.59-7.68-2.58-4.84-1.83-10.77,1.87-14.82l8.55-9.36c3.09-3.38,2.86-8.63-.53-11.73l-14.52-13.27c-3.38-3.09-8.63-2.86-11.73.53l-8.55,9.36c-3.7,4.05-9.54,5.33-14.59,3.19-2.59-1.1-5.25-2.06-7.97-2.89-5.24-1.59-8.89-6.33-9.13-11.79l-.57-12.67c-.21-4.58-4.09-8.12-8.66-7.92l-19.65.88c-4.58.21-8.12,4.09-7.92,8.66l.57,12.67c.25,5.47-2.96,10.51-8.04,12.57-2.63,1.06-5.19,2.26-7.68,3.59-4.84,2.58-10.77,1.83-14.82-1.87l-9.36-8.55c-3.38-3.09-8.63-2.86-11.73.53l-13.27,14.52c-3.09,3.38-2.86,8.63.53,11.73l9.36,8.55c4.05,3.7,5.33,9.54,3.19,14.59-1.1,2.59-2.06,5.25-2.89,7.97-1.59,5.24-6.33,8.89-11.79,9.13l-12.67.57c-4.58.21-8.12,4.09-7.92,8.66l.88,19.65c.21,4.58,4.09,8.12,8.66,7.92l12.67-.57c5.47-.25,10.51,2.96,12.57,8.04,1.06,2.63,2.26,5.19,3.59,7.68,2.58,4.84,1.83,10.77-1.87,14.82l-8.55,9.36c-3.09,3.38-2.86,8.63.53,11.73l14.52,13.27c3.38,3.09,8.63,2.86,11.73-.53l8.55-9.36c3.7-4.05,9.54-5.33,14.59-3.19,2.59,1.1,5.25,2.06,7.97,2.89,5.24,1.59,8.89,6.33,9.13,11.79l.57,12.67c.21,4.58,4.09,8.12,8.66,7.92l19.65-.88c4.58-.21,8.12-4.09,7.92-8.66l-.57-12.67c-.25-5.47,2.96-10.51,8.04-12.57,2.63-1.06,5.19-2.26,7.68-3.59,4.84-2.58,10.77-1.83,14.82,1.87l9.36,8.55c3.38,3.09,8.63,2.86,11.73-.53l13.27-14.52c3.09-3.38,2.86-8.63-.53-11.73l-9.36-8.55c-4.05-3.7-5.33-9.54-3.19-14.59,1.1-2.59,2.06-5.25,2.89-7.97,1.59-5.24,6.33-8.89,11.79-9.13l12.67-.57c4.58-.21,8.12-4.09,7.92-8.66Zm-104.73,34.93c-24.11,2.62-44.94-16.42-44.5-40.67.36-20,15.82-36.91,35.7-39.06,24.11-2.62,44.94,16.42,44.5,40.67-.36,20-15.82,36.91-35.7,39.06Z"/></svg>