<?xml version="1.0" encoding="UTF-8"?><svg id="Mahjong" xmlns="http://www.w3.org/2000/svg" width="500" height="500" viewBox="0 0 500 500"><defs><style>.cls-1{fill:#067741;}.cls-1,.cls-2,.cls-3,.cls-4{stroke-width:0px;}.cls-2{fill:#41bf2e;}.cls-3{fill:#fff;}.cls-4{fill:#0059ac;}</style></defs><rect class="cls-1" x="178.97" y="42.72" width="291.38" height="441.49" rx="37.08" ry="37.08" transform="translate(49.51 -51.36) rotate(9.79)"/><rect class="cls-3" x="134.63" y="35.07" width="291.38" height="441.49" rx="37.08" ry="37.08" transform="translate(47.57 -43.93) rotate(9.79)"/><circle class="cls-4" cx="364.97" cy="154.63" r="58.28"/><g id="Flower"><path class="cls-3" d="m391.82,162.41l-4.77-3.97,5.83-2.14c5.82-2.14,8.8-8.6,6.66-14.42h0c-2.14-5.82-8.6-8.8-14.42-6.66l-5.83,2.14,1.06-6.12c1.05-6.11-3.05-11.92-9.16-12.98h0c-6.11-1.05-11.92,3.05-12.98,9.16l-1.06,6.12-4.77-3.97c-4.77-3.97-11.85-3.32-15.82,1.44h0c-3.97,4.77-3.32,11.85,1.44,15.82l4.77,3.97-5.83,2.14c-5.82,2.14-8.8,8.6-6.66,14.42h0c2.14,5.82,8.6,8.8,14.42,6.66l5.83-2.14-1.06,6.12c-1.05,6.11,3.05,11.92,9.16,12.98h0c6.11,1.05,11.92-3.05,12.98-9.16l1.06-6.12,4.77,3.97c4.77,3.97,11.85,3.32,15.82-1.44h0c3.97-4.77,3.32-11.85-1.44-15.82Z"/></g><circle class="cls-2" cx="326.18" cy="379.51" r="58.28"/><path class="cls-3" d="m353.02,387.29l-4.77-3.97,5.83-2.15c5.82-2.14,8.8-8.6,6.66-14.42-2.14-5.82-8.6-8.8-14.42-6.66l-5.83,2.14,1.06-6.12c1.05-6.11-3.05-11.92-9.16-12.98h0c-6.11-1.05-11.92,3.05-12.98,9.16l-1.06,6.12-4.77-3.97c-4.77-3.97-11.85-3.32-15.82,1.44s-3.32,11.85,1.44,15.82l4.77,3.97-5.83,2.14c-5.82,2.14-8.8,8.6-6.66,14.42,2.14,5.82,8.6,8.8,14.42,6.66l5.83-2.14-1.06,6.12c-1.05,6.11,3.05,11.92,9.16,12.98h0c6.11,1.05,11.92-3.05,12.98-9.16l1.06-6.12,4.77,3.97c4.77,3.97,11.85,3.32,15.82-1.44,3.97-4.77,3.32-11.85-1.44-15.82Z"/><rect class="cls-1" y="0" width="353.04" height="500" rx="42" ry="42"/><rect class="cls-3" y="0" width="302.83" height="500" rx="42" ry="42"/><circle class="cls-2" cx="151.42" cy="136.59" r="86.76"/><g id="Flower-2"><path class="cls-3" d="m192.77,141.21l-8-4.62,8-4.62c8-4.62,10.74-14.84,6.12-22.84h0c-4.62-8-14.84-10.74-22.84-6.12l-8,4.62v-9.24c0-9.23-7.49-16.72-16.72-16.72h0c-9.23,0-16.72,7.49-16.72,16.72v9.24l-8-4.62c-8-4.62-18.22-1.88-22.84,6.12h0c-4.62,8-1.88,18.22,6.12,22.84l8,4.62-8,4.62c-8,4.62-10.74,14.84-6.12,22.84h0c4.62,8,14.84,10.74,22.84,6.12l8-4.62v9.24c0,9.23,7.49,16.72,16.72,16.72h0c9.23,0,16.72-7.49,16.72-16.72v-9.24l8,4.62c8,4.62,18.22,1.88,22.84-6.12h0c4.62-8,1.88-18.22-6.12-22.84Z"/></g><circle class="cls-4" cx="151.42" cy="351.29" r="86.76"/><path class="cls-3" d="m192.77,355.91l-8-4.62,8-4.62c8-4.62,10.74-14.84,6.12-22.84s-14.84-10.74-22.84-6.12l-8,4.62v-9.24c0-9.23-7.49-16.72-16.72-16.72h0c-9.23,0-16.72,7.49-16.72,16.72v9.24l-8-4.62c-8-4.62-18.22-1.88-22.84,6.12s-1.88,18.22,6.12,22.84l8,4.62-8,4.62c-8,4.62-10.74,14.84-6.12,22.84,4.62,8,14.84,10.74,22.84,6.12l8-4.62v9.24c0,9.23,7.49,16.72,16.72,16.72h0c9.23,0,16.72-7.49,16.72-16.72v-9.24l8,4.62c8,4.62,18.22,1.88,22.84-6.12,4.62-8,1.88-18.22-6.12-22.84Z"/></svg>