<?xml version="1.0" encoding="UTF-8"?><svg id="Match_3" xmlns="http://www.w3.org/2000/svg" width="500" height="500" viewBox="0 0 500 500"><defs><style>.cls-1{fill:#f470f0;}.cls-1,.cls-2{stroke-width:0px;}.cls-2{fill:#7242bc;}</style></defs><path class="cls-2" d="m123.18,297.47l22.64,45.88c2.13,4.32,6.26,7.32,11.03,8.01l50.63,7.36c12.02,1.75,16.81,16.51,8.12,24.99l-36.64,35.71c-3.45,3.37-5.03,8.21-4.21,12.97l8.65,50.43c2.05,11.97-10.51,21.09-21.26,15.44l-45.29-23.81c-4.27-2.24-9.37-2.24-13.63,0l-45.29,23.81c-10.75,5.65-23.31-3.48-21.26-15.44l8.65-50.43c.82-4.75-.76-9.6-4.21-12.97l-36.64-35.71c-8.69-8.48-3.9-23.24,8.12-24.99l50.63-7.36c4.77-.69,8.9-3.69,11.03-8.01l22.64-45.88c5.37-10.89,20.9-10.89,26.27,0Z"/><path class="cls-1" d="m134.75,410.66c-3.84,0-7.68-1.46-10.61-4.39l-19.33-19.33c-5.86-5.86-5.86-15.36,0-21.21,5.86-5.86,15.36-5.86,21.21,0l19.33,19.33c5.86,5.86,5.86,15.36,0,21.21-2.93,2.93-6.77,4.39-10.61,4.39Z"/><path class="cls-2" d="m403.24,297.47l22.64,45.88c2.13,4.32,6.26,7.32,11.03,8.01l50.63,7.36c12.02,1.75,16.81,16.51,8.12,24.99l-36.64,35.71c-3.45,3.37-5.03,8.21-4.21,12.97l8.65,50.43c2.05,11.97-10.51,21.09-21.26,15.44l-45.29-23.81c-4.27-2.24-9.37-2.24-13.63,0l-45.29,23.81c-10.75,5.65-23.31-3.48-21.26-15.44l8.65-50.43c.82-4.75-.76-9.6-4.21-12.97l-36.64-35.71c-8.69-8.48-3.9-23.24,8.12-24.99l50.63-7.36c4.77-.69,8.9-3.69,11.03-8.01l22.64-45.88c5.37-10.89,20.9-10.89,26.27,0Z"/><path class="cls-1" d="m416.77,410.66c-3.84,0-7.68-1.46-10.61-4.39l-19.33-19.33c-5.86-5.86-5.86-15.36,0-21.21,5.86-5.86,15.36-5.86,21.21,0l19.33,19.33c5.86,5.86,5.86,15.36,0,21.21-2.93,2.93-6.77,4.39-10.61,4.39Z"/><path class="cls-2" d="m267.17,10.69l29.64,60.06c2.79,5.66,8.19,9.58,14.44,10.49l66.28,9.63c15.73,2.29,22.01,21.62,10.63,32.71l-47.96,46.75c-4.52,4.41-6.58,10.75-5.52,16.98l11.32,66.01c2.69,15.67-13.76,27.61-27.83,20.22l-59.28-31.17c-5.59-2.94-12.26-2.94-17.85,0l-59.28,31.17c-14.07,7.4-30.51-4.55-27.83-20.22l11.32-66.01c1.07-6.22-1-12.57-5.52-16.98l-47.96-46.75c-11.38-11.1-5.1-30.43,10.63-32.71l66.28-9.63c6.25-.91,11.65-4.83,14.44-10.49l29.64-60.06c7.03-14.25,27.36-14.25,34.4,0Z"/><path class="cls-1" d="m284.13,142.28c-3.84,0-7.68-1.46-10.61-4.39l-19.33-19.33c-5.86-5.86-5.86-15.35,0-21.21,5.86-5.86,15.35-5.86,21.21,0l19.33,19.33c5.86,5.86,5.86,15.35,0,21.21-2.93,2.93-6.77,4.39-10.61,4.39Z"/></svg>