<?xml version="1.0" encoding="UTF-8"?><svg id="Memory" xmlns="http://www.w3.org/2000/svg" width="500" height="500" viewBox="0 0 500 500"><defs><style>.cls-1{fill:#ffe420;}.cls-1,.cls-2,.cls-3{stroke-width:0px;}.cls-2{fill:#fdad00;}.cls-3{fill:#0059ac;}</style></defs><rect class="cls-3" x="277" width="223" height="223" rx="42" ry="42"/><rect class="cls-3" x=".1" y="277" width="223" height="223" rx="42" ry="42"/><rect class="cls-1" x=".1" width="223" height="223" rx="42" ry="42"/><path class="cls-2" d="m104.23,64.41l-49.36,85.5c-3.49,6.04.87,13.59,7.85,13.59h98.72c6.97,0,11.33-7.55,7.85-13.59l-49.36-85.5c-3.49-6.04-12.2-6.04-15.69,0Z"/><rect class="cls-2" x="277" y="277" width="223" height="223" rx="42" ry="42"/><path class="cls-1" d="m381.1,341.09l-49.36,85.5c-3.49,6.04.87,13.59,7.85,13.59h98.72c6.97,0,11.33-7.55,7.85-13.59l-49.36-85.5c-3.49-6.04-12.2-6.04-15.69,0Z"/></svg>