<?xml version="1.0" encoding="UTF-8"?><svg id="Multiply-divide_V2" xmlns="http://www.w3.org/2000/svg" width="500" height="500" viewBox="0 0 500 500"><defs><style>.cls-1{fill:#131b29;}.cls-1,.cls-2,.cls-3,.cls-4{stroke-width:0px;}.cls-2{fill:#ffe420;}.cls-3{fill:#00c2ff;}.cls-4{fill:#0059ac;}</style></defs><rect class="cls-4" x=".47" y=".24" width="500" height="500" rx="42" ry="42"/><rect class="cls-2" x="53.47" y="53.24" width="175.72" height="175.72" rx="33.1" ry="33.1"/><rect class="cls-3" x="271.75" y="53.24" width="175.72" height="175.72" rx="33.1" ry="33.1"/><rect class="cls-2" x="53.47" y="271.51" width="175.72" height="175.72" rx="33.1" ry="33.1"/><rect class="cls-3" x="271.75" y="271.51" width="175.72" height="175.72" rx="33.1" ry="33.1"/><path id="divide" class="cls-1" d="m176.79,151.1h-70.92c-5.52,0-10-4.48-10-10s4.48-10,10-10h70.92c5.52,0,10,4.48,10,10s-4.48,10-10,10Zm-35.46-58.76c-7.34,0-13.3,5.95-13.3,13.3s5.95,13.3,13.3,13.3,13.3-5.95,13.3-13.3-5.95-13.3-13.3-13.3Zm0,70.92c-7.34,0-13.3,5.95-13.3,13.3s5.95,13.3,13.3,13.3,13.3-5.95,13.3-13.3-5.95-13.3-13.3-13.3Z"/><path class="cls-1" d="m155.5,359.63l28.39-28.39c3.91-3.91,3.91-10.24,0-14.14-3.91-3.91-10.24-3.91-14.14,0l-28.39,28.39-28.39-28.39c-3.91-3.91-10.24-3.91-14.14,0-3.91,3.91-3.91,10.24,0,14.14l28.39,28.39-28.39,28.39c-3.91,3.91-3.91,10.24,0,14.14,1.95,1.95,4.51,2.93,7.07,2.93s5.12-.98,7.07-2.93l28.39-28.39,28.39,28.39c1.95,1.95,4.51,2.93,7.07,2.93s5.12-.98,7.07-2.93c3.91-3.91,3.91-10.24,0-14.14l-28.39-28.39Z"/></svg>