<?xml version="1.0" encoding="UTF-8"?><svg id="Number" xmlns="http://www.w3.org/2000/svg" width="500" height="500" viewBox="0 0 500 500"><defs><style>.cls-1{fill:#fff;}.cls-1,.cls-2,.cls-3{stroke-width:0px;}.cls-2{fill:#00c2ff;}.cls-3{fill:#0059ac;}</style></defs><rect class="cls-2" x="0" y="9.1" width="381.97" height="381.97" rx="42" ry="42" transform="translate(381.97 400.17) rotate(180)"/><rect class="cls-3" x="92.04" y="96.1" width="381.97" height="381.97" rx="42" ry="42" transform="translate(608.36 525.16) rotate(170.79)"/><rect class="cls-3" x="32.06" y="434.86" width="53.9" height="53.9" rx="16" ry="16" transform="translate(-399.15 379.11) rotate(-72.49)"/><rect class="cls-2" x="449.23" y="2.79" width="47.98" height="47.98" rx="16" ry="16" transform="translate(667.87 458.94) rotate(-117.49)"/><path class="cls-1" d="m370.9,363.66c-1.78-10.9-12.06-18.3-22.96-16.52l-26.53,4.33c-.04-.74-.12-1.5-.25-2.26l-25.11-153.75c-1.08-6.61-4.38-11.81-9.89-15.61-5.52-3.79-11.58-5.15-18.19-4.07-7,1.14-12.46,4.43-16.36,9.86l-37.5,52.85c-2.93,4.07-4.01,8.44-3.25,13.11.79,4.86,3.21,8.66,7.25,11.4,4.04,2.74,8.29,3.74,12.77,3.01,4.47-.73,8.01-2.9,10.62-6.53l18.21-26.04,20.01,122.54c.12.76.29,1.5.48,2.22l-24.99,4.08c-10.9,1.78-18.3,12.06-16.52,22.96,1.78,10.9,12.06,18.3,22.96,16.52l92.72-15.14c10.9-1.78,18.3-12.06,16.52-22.96Z"/></svg>