<?xml version="1.0" encoding="UTF-8"?><svg id="One_button" xmlns="http://www.w3.org/2000/svg" width="500" height="500" viewBox="0 0 500 500"><defs><style>.cls-1{fill:#f470f0;}.cls-1,.cls-2,.cls-3{stroke-width:0px;}.cls-2{fill:#7242bc;}.cls-3{fill:#ffe420;}</style></defs><g id="One_button-2"><rect class="cls-2" width="500" height="500" rx="42" ry="42"/><path class="cls-1" d="m42,0h416c23.2,0,42,17.59,42,39.29v341.41c0,21.7-18.8,39.29-42,39.29H42c-23.2,0-42-17.59-42-39.29V39.29C0,17.59,18.8,0,42,0Z"/><path class="cls-3" d="m390.07,200.89l-129.87-129.87c-5.63-5.63-14.77-5.63-20.4,0L109.93,200.89c-9.09,9.09-2.65,24.62,10.2,24.62h79.32c3.98,0,7.21,3.23,7.21,7.21v66.23c0,23.77,18.84,43.65,42.6,44.05,24.27.41,44.08-19.15,44.08-43.33v-66.95c0-3.98,3.23-7.21,7.21-7.21h79.32c12.85,0,19.29-15.54,10.2-24.62Z"/></g></svg>