<?xml version="1.0" encoding="UTF-8"?><svg id="Painting" xmlns="http://www.w3.org/2000/svg" width="500" height="500" viewBox="0 0 500 500"><defs><style>.cls-1{fill:#f470f0;}.cls-1,.cls-2,.cls-3,.cls-4,.cls-5,.cls-6{stroke-width:0px;}.cls-2{fill:#41bf2e;}.cls-3{fill:#ffe420;}.cls-4{fill:#fdad00;}.cls-5{fill:#00c2ff;}.cls-6{fill:#0059ac;}</style></defs><path class="cls-6" d="m324.58,410.37c.97-46.74,39.09-84.87,85.83-85.84,5-.1,9.91.21,14.69.91,37.43,5.49,71.93-21.37,74.37-59.12.36-5.53.53-11.11.52-16.73C499.78,111.26,388.34,0,250,0,111.93,0,0,111.93,0,250c0,138.36,111.29,249.81,249.64,250,5.62,0,11.2-.17,16.73-.53,37.76-2.44,64.62-36.96,59.12-74.4-.7-4.78-1.02-9.69-.91-14.7Z"/><circle class="cls-1" cx="219.36" cy="379.69" r="53.34"/><circle class="cls-5" cx="219.36" cy="120.31" r="53.34"/><circle class="cls-2" cx="102.52" cy="250" r="53.34"/><path class="cls-4" d="m408.19,479.06h0c-16.65,0-30.04-12.45-29.62-27.56l7.9-285.11h42.31l9.02,285.01c.48,15.15-12.92,27.66-29.61,27.66Z"/><path class="cls-3" d="m475.67,106.57c0,37.58-30.47,68.05-68.05,68.05s-68.05-30.47-68.05-68.05c0-34.3,56.68-77.8,66.58-85.14.88-.65,2.06-.65,2.94,0,9.91,7.34,66.58,50.84,66.58,85.14Z"/><path class="cls-2" d="m409.09,21.43c-.88-.65-2.06-.65-2.94,0-8.96,6.64-56.16,42.85-65.11,75.08.05.06.1.12.15.18,4.42,5.48,10.48,12.97,22.37,12.97s17.95-7.5,22.37-12.97c4.12-5.1,6.04-7.03,9.93-7.03s5.81,1.93,9.93,7.03c4.42,5.48,10.48,12.97,22.37,12.97s17.95-7.5,22.38-12.97c4.12-5.1,6.04-7.03,9.93-7.03s5.81,1.93,9.93,7.03c1.44,1.78,3.06,3.78,4.99,5.66-4.24-33.55-56.8-73.89-66.3-80.93Z"/></svg>