<?xml version="1.0" encoding="UTF-8"?><svg id="Physics_puzzles" xmlns="http://www.w3.org/2000/svg" width="500" height="500" viewBox="0 0 500 500"><defs><style>.cls-1{fill:#41bf2e;}.cls-1,.cls-2,.cls-3{stroke-width:0px;}.cls-2{fill:#ffe420;}.cls-3{fill:#0059ac;}</style></defs><path class="cls-3" d="m252.57,182.72c-12.34,0-23.91-7.67-28.27-19.97-5.54-15.61,2.62-32.76,18.23-38.31l217.42-77.19c15.61-5.55,32.77,2.62,38.31,18.23s-2.62,32.76-18.23,38.31l-217.42,77.19c-3.32,1.18-6.71,1.74-10.04,1.74Z"/><path class="cls-3" d="m341.48,500h-194.17c-9.15,0-17.06-6.37-19.03-15.3l-46.44-211.45c-2.67-12.15,6.58-23.66,19.03-23.66h287.05c12.44,0,21.69,11.51,19.03,23.66l-46.44,211.45c-1.96,8.93-9.88,15.3-19.03,15.3Z"/><circle class="cls-2" cx="291.45" cy="67.5" r="46.62"/><circle class="cls-1" cx="298.75" cy="423.24" r="46.62"/><circle class="cls-1" cx="191.51" cy="423.24" r="46.62"/><circle class="cls-1" cx="246.23" cy="335.12" r="46.62"/><path class="cls-3" d="m133.99,72.56l-107.53-12.76C10.01,57.84-1.74,42.92.21,26.47,2.17,10.01,17.09-1.74,33.54.21l107.53,12.76c16.45,1.95,28.21,16.87,26.25,33.33-1.95,16.45-16.87,28.21-33.33,26.25Z"/></svg>