<?xml version="1.0" encoding="UTF-8"?><svg id="Platforming_Puzzles" xmlns="http://www.w3.org/2000/svg" width="500" height="500" viewBox="0 0 500 500"><defs><style>.cls-1{fill:#067741;}.cls-1,.cls-2,.cls-3,.cls-4,.cls-5,.cls-6,.cls-7{stroke-width:0px;}.cls-2{fill:#41bf2e;}.cls-3{fill:#131b29;}.cls-4{fill:#cef72a;}.cls-5{fill:#ffe420;}.cls-6{fill:#fdad00;}.cls-7{fill:#0059ac;}</style></defs><rect class="cls-7" x="0" width="500" height="474.67" rx="42" ry="42"/><path class="cls-2" d="m0,354.33h500v103.67c0,23.18-18.82,42-42,42H42C18.82,500,0,481.18,0,458v-103.67H0Z"/><path class="cls-7" d="m242,327.67h127.46v107.85c0,8.83-7.17,16-16,16h-95.46c-8.83,0-16-7.17-16-16v-107.85h0Z"/><rect class="cls-2" x="369.46" y="248.84" width="130.54" height="166.3"/><path class="cls-4" d="m257,360.17c0,11.04-8.96,19.99-20,19.99h-.01L0,380.08v-40l237.01.08c11.04.01,19.99,8.96,19.99,20.01Z"/><path class="cls-4" d="m500,241.07v40h-128.4c-11.05,0-20-8.95-20-20s8.95-20,20-20h128.4Z"/><rect class="cls-6" x="130.91" y="228.97" width="111.27" height="111.27" rx="16" ry="16"/><path class="cls-5" d="m368.53,82.8l10.07,20.41c.95,1.92,2.78,3.26,4.91,3.57l22.53,3.27c5.35.78,7.48,7.35,3.61,11.12l-16.3,15.89c-1.54,1.5-2.24,3.65-1.87,5.77l3.85,22.44c.91,5.32-4.68,9.39-9.46,6.87l-20.15-10.59c-1.9-1-4.17-1-6.07,0l-20.15,10.59c-4.78,2.51-10.37-1.55-9.46-6.87l3.85-22.44c.36-2.11-.34-4.27-1.87-5.77l-16.3-15.89c-3.87-3.77-1.73-10.34,3.61-11.12l22.53-3.27c2.12-.31,3.96-1.64,4.91-3.57l10.07-20.41c2.39-4.84,9.3-4.84,11.69,0Z"/><g id="Character"><circle class="cls-3" cx="97.72" cy="257.31" r="28.65"/><path class="cls-3" d="m86.53,282.08h24.34c3.05,0,5.52,2.47,5.52,5.52v35.48h-35.39v-35.48c0-3.05,2.47-5.52,5.52-5.52Z"/><path class="cls-3" d="m103.11,316.39h13.29v17.82c0,3.46-2.81,6.26-6.26,6.26h-.76c-3.46,0-6.26-2.81-6.26-6.26v-17.82h0Z"/><path class="cls-3" d="m79.03,316.39h13.29v17.82c0,3.46-2.81,6.26-6.26,6.26h-.76c-3.46,0-6.26-2.81-6.26-6.26v-17.82h0Z" transform="translate(117.87 -9.46) rotate(20.06)"/><rect class="cls-3" x="111.66" y="273.53" width="13.29" height="30.72" rx="6.26" ry="6.26" transform="translate(-170.59 407.19) rotate(-90)"/><path class="cls-1" d="m110.09,261.1c-2,0-3.62-1.62-3.62-3.62v-4.79c0-2,1.62-3.62,3.62-3.62s3.62,1.62,3.62,3.62v4.79c0,2-1.62,3.62-3.62,3.62Z"/></g></svg>