<?xml version="1.0" encoding="UTF-8"?><svg id="Platformer" xmlns="http://www.w3.org/2000/svg" width="500" height="500" viewBox="0 0 500 500"><defs><style>.cls-1{fill:#067741;}.cls-1,.cls-2,.cls-3,.cls-4,.cls-5,.cls-6{stroke-width:0px;}.cls-2{fill:#41bf2e;}.cls-3{fill:#131b29;}.cls-4{fill:#ffe420;}.cls-5{fill:#fdad00;}.cls-6{fill:#0059ac;}</style></defs><rect class="cls-6" y="0" width="500" height="500" rx="42" ry="42"/><path class="cls-5" d="m86.16,217.27h70.16c11.37,0,20.61,9.23,20.61,20.61v35.08c0,30.74-24.95,55.69-55.69,55.69h0c-30.74,0-55.69-24.95-55.69-55.69v-35.08c0-11.37,9.23-20.61,20.61-20.61Z"/><path class="cls-4" d="m325.48,256.13l9.42,19.08c.89,1.8,2.6,3.04,4.59,3.33l21.05,3.06c5,.73,6.99,6.87,3.38,10.39l-15.23,14.85c-1.44,1.4-2.09,3.42-1.75,5.39l3.6,20.97c.85,4.98-4.37,8.77-8.84,6.42l-18.83-9.9c-1.77-.93-3.89-.93-5.67,0l-18.83,9.9c-4.47,2.35-9.69-1.45-8.84-6.42l3.6-20.97c.34-1.98-.32-3.99-1.75-5.39l-15.23-14.85c-3.62-3.52-1.62-9.66,3.38-10.39l21.05-3.06c1.98-.29,3.7-1.53,4.59-3.33l9.42-19.08c2.23-4.53,8.69-4.53,10.93,0Z"/><rect class="cls-5" x="206.02" y="395.74" width="227.98" height="104.26"/><path class="cls-2" d="m437.75,428.9h-235.48c-11.05,0-20-8.95-20-20s8.95-20,20-20h235.48c11.05,0,20,8.95,20,20s-8.95,20-20,20Z"/><path class="cls-2" d="m176.93,252.7h-112.67c-11.05,0-20-8.95-20-20s8.95-20,20-20h112.67c11.05,0,20,8.95,20,20s-8.95,20-20,20Z"/><path class="cls-5" d="m287.75,67.15h119.17c11.37,0,20.61,9.23,20.61,20.61v35.08c0,30.74-24.95,55.69-55.69,55.69h-49.01c-30.74,0-55.69-24.95-55.69-55.69v-35.08c0-11.37,9.23-20.61,20.61-20.61Z"/><path class="cls-2" d="m427.53,102.58h-162.24c-11.05,0-20-8.95-20-20s8.95-20,20-20h162.24c11.05,0,20,8.95,20,20s-8.95,20-20,20Z"/><path class="cls-3" d="m150.25,170.68l-11.63-11.63c-1.23-1.23-2.84-1.84-4.45-1.83,8.04-4.68,13.44-13.38,13.44-23.36,0-14.92-12.09-27.01-27.01-27.01s-27.01,12.09-27.01,27.01c0,9.97,5.41,18.67,13.44,23.36-1.61,0-3.22.61-4.45,1.83l-11.63,11.63c-2.45,2.45-2.45,6.41,0,8.86h0c2.45,2.45,6.41,2.45,8.86,0l3.18-3.18v13.22h-.02v16.44c0,3.46,2.8,6.26,6.26,6.26s6.26-2.8,6.26-6.26v-10.14h10.17v10.14c0,3.46,2.8,6.26,6.26,6.26s6.26-2.8,6.26-6.26v-29.66l3.18,3.18c2.45,2.45,6.41,2.45,8.86,0h0c2.45-2.45,2.45-6.41,0-8.86Z"/><path class="cls-1" d="m117.17,143.09c-1.88,0-3.41-1.53-3.41-3.41v-4.51c0-1.89,1.53-3.41,3.41-3.41s3.41,1.53,3.41,3.41v4.51c0,1.89-1.53,3.41-3.41,3.41Z"/><path class="cls-1" d="m136.59,143.09c-1.88,0-3.41-1.53-3.41-3.41v-4.51c0-1.89,1.53-3.41,3.41-3.41s3.41,1.53,3.41,3.41v4.51c0,1.89-1.53,3.41-3.41,3.41Z"/></svg>