<?xml version="1.0" encoding="UTF-8"?><svg id="Retro" xmlns="http://www.w3.org/2000/svg" width="500" height="500" viewBox="0 0 500 500"><defs><style>.cls-1{stroke:#41bf2e;stroke-width:20px;}.cls-1,.cls-2{fill:none;stroke-linecap:round;stroke-linejoin:round;}.cls-2{stroke:#0059ac;stroke-width:15px;}.cls-3{fill:#067741;}.cls-3,.cls-4,.cls-5,.cls-6,.cls-7,.cls-8{stroke-width:0px;}.cls-4{fill:#ffe420;}.cls-5{fill:#eb141f;}.cls-6{fill:#00c2ff;}.cls-7{fill:#060d19;}.cls-8{fill:#0059ac;}</style></defs><rect class="cls-8" x="32.31" y="105.94" width="435.38" height="288.12"/><rect class="cls-6" width="500" height="105.94" rx="20" ry="20"/><path class="cls-7" d="m412.44,354.68H90.21c-4.22,0-7.54-4.04-7.23-8.78l12.94-193.03c.29-4.26,3.44-7.55,7.23-7.55h293.95c3.75,0,6.88,3.23,7.22,7.44l15.34,193.03c.38,4.78-2.96,8.89-7.22,8.89Z"/><line class="cls-1" x1="92.53" y1="393.56" x2="92.53" y2="307.34"/><circle class="cls-4" cx="92.53" cy="291.3" r="42.42"/><rect class="cls-6" y="394.06" width="500" height="105.94" rx="20" ry="20"/><line class="cls-2" x1="441.83" y1="463.43" x2="441.83" y2="435.43"/><circle class="cls-8" cx="404.44" cy="450.15" r="15.25"/><rect class="cls-5" x="178.13" y="277.95" width="31.62" height="31.62" rx="2" ry="2"/><rect class="cls-3" x="178.13" y="199.71" width="31.62" height="31.62" rx="2" ry="2"/><rect class="cls-3" x="217.14" y="199.71" width="31.62" height="31.62" rx="2" ry="2"/><rect class="cls-3" x="256.16" y="199.71" width="31.62" height="31.62" rx="2" ry="2"/><rect class="cls-3" x="256.16" y="238.83" width="31.62" height="31.62" rx="2" ry="2"/><rect class="cls-3" x="295.17" y="277.95" width="31.62" height="31.62" rx="2" ry="2"/><rect class="cls-3" x="256.16" y="277.95" width="31.62" height="31.62" rx="2" ry="2"/></svg>