<?xml version="1.0" encoding="UTF-8"?><svg id="Science" xmlns="http://www.w3.org/2000/svg" width="500" height="500" viewBox="0 0 500 500"><defs><style>.cls-1{fill:#7242bc;}.cls-1,.cls-2,.cls-3{stroke-width:0px;}.cls-2{fill:#00c2ff;}.cls-3{fill:#0059ac;}</style></defs><path class="cls-2" d="m318.78,209.66l49.98-151.35L231.6,13.01l-49.98,151.35L18.34,318.53c-32.17,30.37-20.22,84.08,21.79,97.96l52.51,17.34,137.16,45.3,52.51,17.34c42.01,13.87,83.59-22.16,75.84-65.72l-39.36-221.09Z"/><rect class="cls-2" x="183.76" y="27.53" width="221.74" height="49.86" rx="24.73" ry="24.73" transform="translate(31.31 -89.75) rotate(18.28)"/><path class="cls-3" d="m303.97,115.8h41.34v18.95h-41.34c-5.19,0-9.4-4.21-9.4-9.4v-.15c0-5.19,4.21-9.4,9.4-9.4Z" transform="translate(55.42 -94.01) rotate(18.28)"/><path class="cls-3" d="m291.76,152.76h41.34v18.95h-41.34c-5.19,0-9.4-4.21-9.4-9.4v-.15c0-5.19,4.21-9.4,9.4-9.4Z" transform="translate(66.39 -88.32) rotate(18.28)"/><path class="cls-1" d="m282.3,496.46l-242.18-79.97c-42.01-13.87-53.95-67.58-21.78-97.96l73.59-69.48c.38.13.76.26,1.15.39,22.84,7.54,37.76-.34,55.04-9.46,18.29-9.65,39.02-20.6,69.19-10.63,30.17,9.96,40.3,31.1,49.24,49.74,8.45,17.62,15.74,32.84,38.58,40.38,13.04,4.31,23.49,3.59,33.28.47l19.73,110.8c7.75,43.56-33.83,79.6-75.84,65.72Z"/><circle class="cls-1" cx="101.73" cy="151.74" r="25.91"/><circle class="cls-1" cx="80.21" cy="48.73" r="12.96"/><circle class="cls-1" cx="461.06" cy="171.5" r="38.87"/></svg>