<?xml version="1.0" encoding="UTF-8"?><svg id="Skill" xmlns="http://www.w3.org/2000/svg" width="500" height="500" viewBox="0 0 500 500"><defs><style>.cls-1{fill:#067741;}.cls-1,.cls-2,.cls-3,.cls-4{stroke-width:0px;}.cls-2{fill:#131b29;}.cls-3{fill:#fff;}.cls-4{fill:#fdad00;}</style></defs><circle class="cls-4" cx="192.02" cy="237.88" r="191.87"/><circle class="cls-3" cx="192.02" cy="237.88" r="141.01"/><rect class="cls-4" x="171.02" y=".42" width="47.12" height="71.94" rx="23.24" ry="23.24" transform="translate(389.16 72.78) rotate(180)"/><rect class="cls-4" x="42.39" y="31.79" width="47.12" height="71.94" transform="translate(-28.6 66.48) rotate(-45)"/><rect class="cls-4" x="-7.48" y="26.15" width="107.99" height="42" rx="16" ry="16" transform="translate(-19.72 46.7) rotate(-45)"/><circle class="cls-2" cx="190.79" cy="238.16" r="27.09"/><path class="cls-2" d="m249.92,162.12l-73.61,53.15,38.7,34.75,43.23-80.62c2.84-5.3-3.44-10.8-8.32-7.28Z"/><path class="cls-1" d="m492.5,328.33l-.68-.52c-8.53-6.61-20.8-5.06-27.42,3.47l-20.15,25.98-41.42-32.12-8.85-6.45c3.99.57,8.05.88,12.2.88,47.56,0,86.12-38.56,86.12-86.12s-38.56-86.12-86.12-86.12-86.12,38.56-86.12,86.12c0,13.47,3.1,26.22,8.62,37.58l-41.04-31.83c-8.53-6.61-20.8-5.06-27.42,3.47l-.52.68s0,0,0,0l-32.12,41.42c-6.61,8.53-5.06,20.8,3.47,27.42l.68.52c8.53,6.61,20.8,5.06,27.42-3.47l20.15-25.98,29.27,22.7-89.61,161.45c-5.81,9.38-2.91,21.68,6.46,27.49h0c9.38,5.81,21.68,2.91,27.49-6.46l52.44-82.26,5.36-7.15,48.16,28.38-25.19,42.75c-5.48,9.3-2.38,21.28,6.92,26.75l.74.43c9.3,5.48,21.28,2.38,26.75-6.92l34.27-58.17c.17-.26.35-.5.51-.77l1.17-1.98c5.28-8.96,2.29-20.49-6.66-25.77l-31.84-18.76,16.06-25.76,54.3,42.11c8.53,6.61,20.8,5.06,27.42-3.47l.52-.68h0s32.12-41.42,32.12-41.42c6.61-8.53,5.06-20.8-3.47-27.42Z"/></svg>