<svg xmlns="http://www.w3.org/2000/svg" viewBox="0 0 500 500"><defs><style>.cls-1{fill:#fff;}.cls-2{fill:#f70000;}.cls-3{fill:#040d1a;}</style></defs><g id="Solitaire"><rect class="cls-1" width="500" height="500" rx="42"/><path class="cls-2" d="M140.5,211a13.37,13.37,0,0,1-18.91,0l-61-61c-65.49-65.49,5-135.95,70.46-70.46C193,17.6,263.45,88.05,201.5,150Z"/><g id="Spade"><path class="cls-3" d="M381.12,40a13.37,13.37,0,0,0-18.91,0l-61,61c-65.49,65.49,5,136,70.46,70.46,61.95,61.94,132.4-8.51,70.45-70.46Z"/><path class="cls-3" d="M371.47,167.26l-29.71,51.45a9,9,0,0,0,7.79,13.5h43.83a9,9,0,0,0,7.8-13.5Z"/></g><g id="Club"><path class="cls-3" d="M129.82,398.93l-29.71,51.46a9,9,0,0,0,7.8,13.5h43.83a9,9,0,0,0,7.79-13.5Z"/><path class="cls-3" d="M176.75,336.13c-1,0-2,0-3,.1a48.88,48.88,0,1,0-88.07,0c-1-.06-2-.1-3-.1a48.88,48.88,0,1,0,45.09,67.76h3.82a48.88,48.88,0,1,0,45.09-67.76Z"/></g><rect class="cls-2" x="314.23" y="304.55" width="115.14" height="115.14" rx="10.31" transform="translate(364.95 -156.84) rotate(45)"/></g></svg>