<?xml version="1.0" encoding="UTF-8"?><svg id="Strategy" xmlns="http://www.w3.org/2000/svg" width="500" height="500" viewBox="0 0 500 500"><defs><style>.cls-1{fill:none;stroke:#131b29;stroke-miterlimit:10;stroke-width:16px;}.cls-2{fill:#067741;}.cls-2,.cls-3,.cls-4,.cls-5{stroke-width:0px;}.cls-3{fill:#41bf2e;}.cls-4{fill:#ffe420;}.cls-5{fill:#0059ac;}</style></defs><rect class="cls-5" x="-.15" y="-.19" width="500" height="500" rx="42" ry="42"/><rect class="cls-3" x="166.51" y="166.47" width="166.67" height="166.67"/><path class="cls-3" d="m-.15,333.14h166.67v166.67H41.85c-23.2,0-42-18.8-42-42v-124.67Z"/><path class="cls-3" d="m333.18,333.14h166.67v124.67c0,23.2-18.8,42-42,42h-124.67v-166.67Z"/><line class="cls-1" x1="166.51" y1="-.19" x2="166.51" y2="499.81"/><line class="cls-1" x1="333.18" y1="-.19" x2="333.18" y2="499.81"/><line class="cls-1" x1="-.15" y1="166.47" x2="499.85" y2="166.47"/><line class="cls-1" x1="-.15" y1="333.14" x2="499.85" y2="333.14"/><circle class="cls-4" cx="249.35" cy="421.31" r="45.5"/><circle class="cls-2" cx="419.35" cy="421.31" r="45.5"/><circle class="cls-2" cx="249.35" cy="251.31" r="45.5"/><circle class="cls-2" cx="82.35" cy="421.31" r="45.5"/></svg>