<?xml version="1.0" encoding="UTF-8"?><svg id="Think_Outside_box" xmlns="http://www.w3.org/2000/svg" width="500" height="500" viewBox="0 0 500 500"><defs><style>.cls-1{fill:#ffe420;}.cls-1,.cls-2,.cls-3{stroke-width:0px;}.cls-2{fill:#00c2ff;}.cls-3{fill:#0059ac;}</style></defs><rect class="cls-3" x="68.58" y="268.03" width="362.47" height="231.87" rx="16" ry="16"/><path class="cls-1" d="m331.55,81.86C331.55,36.65,294.91,0,249.7,0s-81.86,36.65-81.86,81.86c0,30.33,16.5,56.78,41.01,70.92v21.39h82.03v-21.59c24.32-14.19,40.67-40.54,40.67-70.73Z"/><path class="cls-3" d="m208.85,174.17h82.03v24.78c0,8.83-7.17,16-16,16h-50.03c-8.83,0-16-7.17-16-16v-24.78h0Z"/><path class="cls-3" d="m223.37,213.58h52.65v2.15c0,5.66-4.59,10.25-10.25,10.25h-32.15c-5.66,0-10.25-4.59-10.25-10.25v-2.15h0Z"/><path class="cls-2" d="m489.69,330.22c-1.7,0-3.42-.43-4.99-1.34l-73.15-42.27c-4.78-2.76-6.42-8.88-3.66-13.66,2.76-4.78,8.88-6.42,13.66-3.66l73.15,42.27c4.78,2.76,6.42,8.88,3.66,13.66-1.85,3.21-5.21,5-8.67,5Z"/><path class="cls-2" d="m9.76,330.22c-3.46,0-6.82-1.79-8.67-5-2.76-4.78-1.13-10.9,3.66-13.66l73.14-42.27c4.78-2.76,10.9-1.13,13.66,3.66,2.76,4.78,1.13,10.9-3.66,13.66l-73.14,42.27c-1.58.91-3.3,1.34-5,1.34Z"/><path class="cls-2" d="m382.27,356.46H117.34c-6.38,0-12.14-3.78-14.68-9.63l-28.49-65.65c-2.69-6.21,1.86-13.14,8.62-13.14h333.85c6.76,0,11.31,6.92,8.63,13.12l-28.31,65.64c-2.53,5.87-8.31,9.67-14.69,9.67Z"/></svg>