<?xml version="1.0" encoding="UTF-8"?><svg id="Time_Management" xmlns="http://www.w3.org/2000/svg" width="500" height="500" viewBox="0 0 500 500"><defs><style>.cls-1{fill:#41bf2e;}.cls-1,.cls-2,.cls-3,.cls-4,.cls-5,.cls-6{stroke-width:0px;}.cls-2{fill:#131b29;}.cls-3{fill:#ffe420;}.cls-4{fill:#fdad00;}.cls-5{fill:#00c2ff;}.cls-6{fill:#0059ac;}</style></defs><path class="cls-3" d="m368.71,37.37c-7.36-7.36-5.81-19.61,3.08-25.04,32.46-19.83,75.43-15.7,103.52,12.39s32.22,71.06,12.39,103.52c-5.42,8.88-17.68,10.43-25.04,3.08l-93.95-93.95Z"/><path class="cls-3" d="m131.29,37.37c7.36-7.36,5.81-19.61-3.08-25.04C95.75-7.49,52.78-3.36,24.7,24.72S-7.52,95.78,12.31,128.24c5.42,8.88,17.68,10.43,25.04,3.08l93.95-93.95Z"/><path class="cls-3" d="m136.71,499.97c-1.9,0-3.84-.36-5.71-1.13-7.66-3.16-11.31-11.92-8.15-19.58l22.99-55.78c3.16-7.66,11.92-11.31,19.58-8.15,7.66,3.16,11.31,11.92,8.15,19.58l-22.99,55.78c-2.39,5.79-7.98,9.29-13.87,9.29Z"/><path class="cls-3" d="m365.39,499.97c-5.9,0-11.49-3.5-13.87-9.29l-22.99-55.78c-3.16-7.66.49-16.43,8.15-19.58,7.66-3.15,16.43.5,19.58,8.15l22.99,55.78c3.16,7.66-.49,16.43-8.15,19.58-1.87.77-3.81,1.13-5.71,1.13Z"/><circle class="cls-6" cx="253.67" cy="238.19" r="238.19"/><path class="cls-1" d="m410.81,148.17l-157.19,90.75V57.09c67.26,0,125.95,36.65,157.19,91.08Z"/><path class="cls-3" d="m434.73,238.19c0,33.22-8.94,64.36-24.56,91.11l-156.55-90.38,157.19-90.75c15.22,26.51,23.92,57.25,23.92,90.02Z"/><path class="cls-5" d="m253.62,238.92l-156.55,90.38c31.39,53.83,89.75,90,156.55,90s125.16-36.17,156.55-90l-156.55-90.38Z"/><path class="cls-4" d="m96.43,148.17c-15.22,26.51-23.92,57.25-23.92,90.02s8.94,64.36,24.56,91.11l156.55-90.38V57.09c-67.26,0-125.95,36.65-157.19,91.08Z"/><path class="cls-2" d="m253.67,253.19c-8.28,0-15-6.72-15-15v-71.46c0-8.28,6.72-15,15-15s15,6.72,15,15v71.46c0,8.28-6.72,15-15,15Z"/><path class="cls-2" d="m342.52,304.58c-2.55,0-5.13-.65-7.5-2.02l-88.86-51.39c-7.17-4.15-9.62-13.32-5.48-20.49,4.15-7.17,13.32-9.62,20.49-5.48l88.86,51.39c7.17,4.15,9.62,13.32,5.48,20.49-2.78,4.81-7.82,7.49-13,7.49Z"/></svg>