<?xml version="1.0" encoding="UTF-8"?><svg id="Tming" xmlns="http://www.w3.org/2000/svg" width="500" height="500" viewBox="0 0 500 500"><defs><style>.cls-1{fill:#131b29;}.cls-1,.cls-2,.cls-3,.cls-4{stroke-width:0px;}.cls-2{fill:#fff;}.cls-3{fill:#eb141f;}.cls-4{fill:#0059ac;}</style></defs><ellipse class="cls-4" cx="265.28" cy="265.23" rx="234.72" ry="234.61"/><ellipse class="cls-2" cx="265.28" cy="265.23" rx="172.5" ry="172.42"/><rect class="cls-4" x="239.59" y="-.1" width="57.64" height="87.96" rx="23.24" ry="23.24" transform="translate(536.81 87.77) rotate(180)"/><rect class="cls-4" x="53.2" y="39.25" width="57.63" height="87.98" transform="translate(-34.84 82.35) rotate(-44.99)"/><path class="cls-4" d="m111.78,40.85L41.02,111.56c-6.26,6.25-16.4,6.25-22.66,0l-13.67-13.67c-6.26-6.25-6.26-16.39,0-22.65L75.45,4.53c6.26-6.25,16.4-6.25,22.66,0l13.67,13.67c6.26,6.25,6.26,16.39,0,22.65Z"/><path class="cls-3" d="m265.28,265.23l-100.44-98.78c26.48-26.89,62.69-42.06,100.44-42.06,61.8,0,116.73,40.64,134.77,99.72l-134.77,41.12Z"/><ellipse class="cls-1" cx="269.44" cy="266.38" rx="33.14" ry="33.12"/><path class="cls-1" d="m384.68,223.07l-116.1,10.19,18.89,60.74,100.63-60.41c5.16-3.1,2.58-11.04-3.41-10.51Z"/></svg>