<?xml version="1.0" encoding="UTF-8"?><svg id="Tower_defense" xmlns="http://www.w3.org/2000/svg" width="500" height="500" viewBox="0 0 500 500"><defs><style>.cls-1{fill:#067741;}.cls-1,.cls-2,.cls-3{stroke-width:0px;}.cls-2{fill:#41bf2e;}.cls-3{fill:#fdad00;}</style></defs><path class="cls-2" d="m500,14.39v219.88c0,21.39-17.33,38.72-38.72,38.72H38.72c-21.38,0-38.72-17.34-38.72-38.72V14.39C0,6.44,6.44,0,14.39,0h71.22c7.95,0,14.39,6.44,14.39,14.39v71.23c0,7.95,6.44,14.39,14.39,14.39h71.22c7.95,0,14.39-6.44,14.39-14.39V14.39c0-7.95,6.44-14.39,14.39-14.39h71.22c7.95,0,14.39,6.44,14.39,14.39v71.23c0,7.95,6.44,14.39,14.39,14.39h71.22c7.95,0,14.39-6.44,14.39-14.39V14.39c0-7.95,6.44-14.39,14.39-14.39h71.22c7.95,0,14.39,6.44,14.39,14.39Z"/><path class="cls-1" d="m38.5,273h418v191.58c0,19.55-15.87,35.42-35.42,35.42H73.91c-19.55,0-35.42-15.87-35.42-35.42v-191.58h0Z"/><path class="cls-3" d="m247.5,323h0c41.39,0,75,33.61,75,75v102h-150v-102c0-41.39,33.61-75,75-75Z"/><circle class="cls-1" cx="247.78" cy="186.5" r="28.8"/><circle class="cls-1" cx="418.04" cy="186.5" r="28.8"/><circle class="cls-1" cx="69.96" cy="186.5" r="28.8"/></svg>