<?xml version="1.0" encoding="UTF-8"?><svg id="Word" xmlns="http://www.w3.org/2000/svg" width="500" height="500" viewBox="0 0 500 500"><defs><style>.cls-1{fill:#ffe420;}.cls-1,.cls-2,.cls-3,.cls-4,.cls-5,.cls-6{stroke-width:0px;}.cls-2{fill:#fff;}.cls-3{fill:#fceb00;}.cls-4{fill:#eb141f;}.cls-5{fill:#f60000;}.cls-6{fill:#00c2ff;}</style></defs><rect class="cls-3" x="118.03" y="108.34" width="381.97" height="381.97" rx="42" ry="42"/><rect class="cls-4" x="24.9" y="21.93" width="381.97" height="381.97" rx="42" ry="42" transform="translate(-31.3 37.3) rotate(-9.21)"/><path class="cls-2" d="m308.04,274.37c.88,5.45-.29,10.83-3.52,16.14-3.23,5.32-8.25,8.53-15.06,9.63-4.48.73-8.76.17-12.85-1.66-4.09-1.83-7.26-4.76-9.51-8.79l-10.99-19.78-83.46,13.53-4.47,22.29c-.87,4.53-2.99,8.32-6.39,11.37-3.4,3.04-7.34,4.93-11.81,5.66-6.62,1.07-12.29-.35-17.01-4.28-4.73-3.92-7.55-8.71-8.47-14.35-.5-3.11-.45-5.81.18-8.12l33.2-155.42c1.45-7.02,4.82-13.01,10.11-17.96,5.29-4.95,11.33-7.98,18.14-9.08,7.3-1.78,14.63-1.22,21.98,1.68,7.36,2.9,12.98,7.73,16.87,14.48l80.31,137.01c1.44,2.76,2.36,5.31,2.74,7.64Zm-69.23-39.09l-43.93-78.83-16.77,88.67,60.7-9.84Z"/><rect class="cls-5" x="416.46" y="12.67" width="53.9" height="53.9" rx="16" ry="16" transform="translate(614.63 -371.31) rotate(107.51)"/><rect class="cls-6" x="376.03" y="207.02" width="66.52" height="66.52" rx="16" ry="16" transform="translate(433.55 -233.71) rotate(62.51)"/><rect class="cls-1" x="2.79" y="449.23" width="47.98" height="47.98" rx="16" ry="16" transform="translate(434.22 231.06) rotate(62.51)"/></svg>