<svg width="18" height="18" viewBox="0 0 18 18" fill="none" xmlns="http://www.w3.org/2000/svg">
<g clip-path="url(#clip0_37_156)">
<path d="M9 0C4.032 0 0 4.032 0 9C0 13.968 4.032 18 9 18C13.968 18 18 13.968 18 9C18 4.032 13.968 0 9 0ZM8.7696 14.9976C7.9416 14.9976 7.272 14.328 7.272 13.5C7.272 12.672 7.9416 12.0024 8.7696 12.0024C9.5976 12.0024 10.2672 12.672 10.2672 13.5C10.2672 14.328 9.5976 14.9976 8.7696 14.9976ZM8.7696 10.1376C7.884 10.1376 7.0272 5.5944 7.0272 4.6368C7.0272 3.6792 7.8048 2.8944 8.7696 2.8944C9.7344 2.8944 10.512 3.672 10.512 4.6368C10.512 5.6016 9.6408 10.1376 8.7696 10.1376Z" fill="#FFE420"/>
</g>
<defs>
<clipPath id="clip0_37_156">
<rect width="18" height="18" fill="white"/>
</clipPath>
</defs>
</svg>
